<svg aria-hidden="true" style="position: absolute; width: 0; height: 0; overflow: hidden;" version="1.1" xmlns="http://www.w3.org/2000/svg" xmlns:xlink="http://www.w3.org/1999/xlink">
<defs>
<symbol id="icon-cross" viewBox="0 0 32 32">
<path d="M31.708 25.708c-0-0-0-0-0-0l-9.708-9.708 9.708-9.708c0-0 0-0 0-0 0.105-0.105 0.18-0.227 0.229-0.357 0.133-0.356 0.057-0.771-0.229-1.057l-4.586-4.586c-0.286-0.286-0.702-0.361-1.057-0.229-0.13 0.048-0.252 0.124-0.357 0.228 0 0-0 0-0 0l-9.708 9.708-9.708-9.708c-0-0-0-0-0-0-0.105-0.104-0.227-0.18-0.357-0.228-0.356-0.133-0.771-0.057-1.057 0.229l-4.586 4.586c-0.286 0.286-0.361 0.702-0.229 1.057 0.049 0.13 0.124 0.252 0.229 0.357 0 0 0 0 0 0l9.708 9.708-9.708 9.708c-0 0-0 0-0 0-0.104 0.105-0.18 0.227-0.229 0.357-0.133 0.355-0.057 0.771 0.229 1.057l4.586 4.586c0.286 0.286 0.702 0.361 1.057 0.229 0.13-0.049 0.252-0.124 0.357-0.229 0-0 0-0 0-0l9.708-9.708 9.708 9.708c0 0 0 0 0 0 0.105 0.105 0.227 0.18 0.357 0.229 0.356 0.133 0.771 0.057 1.057-0.229l4.586-4.586c0.286-0.286 0.362-0.702 0.229-1.057-0.049-0.13-0.124-0.252-0.229-0.357z"></path>
</symbol>
</defs>
</svg>
<symbol id="icon-icons8--1" viewBox="0 0 32 32">
<path d="M26.24 2.56h-20.48c-1.764 0-3.2 1.436-3.2 3.2v20.48c0 1.764 1.436 3.2 3.2 3.2h20.48c1.764 0 3.2-1.436 3.2-3.2v-20.48c0-1.764-1.436-3.2-3.2-3.2zM23.684 14.287c-0.131 0.014-0.285 0.022-0.44 0.022h-0.001c-0 0-0 0-0.001 0-1.671 0-3.142-0.855-4-2.151l-0.011-0.018v7.384c0 3.014-2.443 5.457-5.457 5.457s-5.457-2.443-5.457-5.457c0-3.014 2.443-5.457 5.457-5.457v0c0.114 0 0.225 0.010 0.337 0.017v2.689c-0.112-0.013-0.222-0.034-0.337-0.034-1.538 0-2.785 1.247-2.785 2.785s1.247 2.785 2.785 2.785v0c1.539 0 2.897-1.212 2.897-2.751l0.027-12.54h2.57c0.249 2.303 2.098 4.104 4.401 4.277l0.016 0.001v2.989z"></path>
</symbol>


<svg xmlns="http://www.w3.org/2000/svg" viewBox="0 0 64 64"><defs><radialGradient
 id="radial-gradient" cx="-578.95" cy="-837.6" r="197.06" 
 gradientTransform="matrix(.75 0 0 .75 499.5 629.5)"
  gradientUnits="userSpaceOnUse"><stop offset="0" 
  stop-color="#f9ed32"/><stop offset=".36" 
  stop-color="#ee2a7b"/><stop offset=".44" stop-color="#d22a8a"/><stop offset=".6" 
  stop-color="#8b2ab2"/><stop offset=".83" stop-color="#1b2af0"/><stop offset=".88"
   stop-color="#002aff"/></radialGradient><style>.cls-2{fill:#fff}</style></defs><g id="_3-instagram"
    data-name="3-instagram"><rect width="64" height="64" rx="11.2" ry="11.2" 
    style="fill:url(#radial-gradient)" transform="rotate(180 32 32)"/>
    <path d="M44 56H20A12 12 0 0 1 8 44V20A12 12 0 0 1 20 8h24a12 12 0 0 1 12 12v24a12 12 0 0 1-12 12ZM20 12.8a7.21 7.21 0 0 0-7.2 7.2v24a7.21 7.21 0 0 0 7.2 7.2h24a7.21 7.21 0 0 0 7.2-7.2V20a7.21 7.21 0 0 0-7.2-7.2Z" class="cls-2"/><path d="M32 45.6A13.6 13.6 0 1 1 45.6 32 13.61 13.61 0 0 1 32 45.6Zm0-22.4a8.8 8.8 0 1 0 8.8 8.8 8.81 8.81 0 0 0-8.8-8.8Z" class="cls-2"/><circle cx="45.6" cy="19.2" r="2.4" class="cls-2"/></g></svg>